<svg width="622" height="85" viewBox="0 0 622 85" fill="none" xmlns="http://www.w3.org/2000/svg">
<mask id="path-1-outside-1_193_1766" maskUnits="userSpaceOnUse" x="0" y="0" width="622" height="85" fill="black">
<rect fill="white" width="622" height="85"/>
<path fill-rule="evenodd" clip-rule="evenodd" d="M263.164 1L1 1V84H621V1L358.836 1C356.803 25.6381 336.163 45 311 45C285.837 45 265.197 25.6381 263.164 1Z"/>
</mask>
<path fill-rule="evenodd" clip-rule="evenodd" d="M263.164 1L1 1V84H621V1L358.836 1C356.803 25.6381 336.163 45 311 45C285.837 45 265.197 25.6381 263.164 1Z" fill="white"/>
<path d="M1 1L1 0L0 0V1H1ZM263.164 1L264.161 0.917781L264.085 0L263.164 0V1ZM1 84H0V85H1V84ZM621 84V85H622V84H621ZM621 1H622V0L621 0V1ZM358.836 1V0L357.915 0L357.839 0.917781L358.836 1ZM1 2L263.164 2V0L1 0L1 2ZM2 84V1H0V84H2ZM621 83H1V85H621V83ZM620 1V84H622V1H620ZM358.836 2L621 2V0L358.836 0V2ZM357.839 0.917781C355.849 25.0416 335.638 44 311 44V46C336.687 46 357.757 26.2347 359.832 1.08222L357.839 0.917781ZM311 44C286.362 44 266.151 25.0416 264.161 0.917781L262.168 1.08222C264.243 26.2347 285.313 46 311 46V44Z" fill="#EBEBEB" mask="url(#path-1-outside-1_193_1766)"/>
</svg>
