<svg width="73" height="64" viewBox="0 0 73 64" fill="none" xmlns="http://www.w3.org/2000/svg">
<path d="M21.3099 61.1826L2.29153 47.373C-0.212571 45.5548 -0.747221 42.0851 1.09898 39.6146C2.94787 37.1441 6.47042 36.6167 8.97747 38.4349L25.8311 50.6762H42.8171C44.0565 50.6762 45.0706 49.6769 45.0706 48.4555C45.0706 47.248 44.0565 46.2349 42.8171 46.2349H31.8029C29.5494 46.2349 27.4649 44.7221 27.0987 42.5431C26.648 39.7673 28.8029 37.3523 31.5494 37.3523H49.5777C53.3805 37.3523 57.0566 38.6431 60.0143 41.0025L66.5636 46.2349H69.8594C71.0848 46.2349 72.113 47.248 72.113 48.4555V61.7794C72.113 63.0007 71.0848 64 69.8594 64H30.0001C26.7747 64 23.817 63.0007 21.3099 61.1826Z" fill="black"/>
<path d="M16.6414 3.64413C16.6414 1.63153 18.2971 0 20.3395 0H52.6979C54.7403 0 56.396 1.63153 56.396 3.64413V23.6868C56.396 25.6994 54.7403 27.331 52.6979 27.331H20.3395C18.2971 27.331 16.6414 25.6994 16.6414 23.6868V3.64413Z" fill="black"/>
</svg>
