<svg width="64" height="64" viewBox="0 0 64 64" fill="none" xmlns="http://www.w3.org/2000/svg">
<path d="M19 0H19.275C23.2625 0 26.9625 2.11375 28.9875 5.55625L32 10.6825L35.0125 5.55625C37.0375 2.11375 40.7375 0 44.725 0H45C51.075 0 56 4.925 56 11C56 12.8 55.5625 14.3875 54.8 16H60C62.2125 16 64 17.7875 64 20V28C64 30.2125 62.2125 32 60 32H4C1.79125 32 0 30.2125 0 28V20C0 17.7875 1.79125 16 4 16H9.2C8.4325 14.3875 8 12.8 8 11C8 4.925 12.925 0 19 0ZM23.8125 8.5975C22.8625 6.98875 21.1375 6 19.275 6H19C16.2375 6 14 8.23875 14 11C14 13.7625 16.2375 16 19 16H28.1625L23.8125 8.5975ZM45 6H44.725C42.8625 6 41.1375 6.98875 40.1875 8.5975L35.8375 16H45C47.7625 16 50 13.7625 50 11C50 8.23875 47.7625 6 45 6ZM4 36H28V64H10C6.68625 64 4 61.3125 4 58V36ZM36 64V36H60V58C60 61.3125 57.3125 64 54 64H36Z" fill="black"/>
</svg>
